# xmcd
#
# Track frame offsets:
#	150
#	20593
#	41396
#	64697
#	95484
#	120737
#	143055
#	167267
#	191558
#	208184
#	237996
#	264481
#
# Disc length: 3807 seconds
#
# Revision: 0
# Processed by: cddbd v1.5.2PL0 Copyright (c) Steve Scherf et al.
# Submitted via: dBpowerAMP V4.0
#
DISCID=a20edd0c
DTITLE=Various Artist - Old School
DYEAR=2007
DGENRE=
TTITLE0=Piece of Man
TTITLE1=Gonna Buy Me a Mule
TTITLE2=Black Rat
TTITLE3=Money Is the Name of the Game
TTITLE4=You Ain't Worth a Good Woman
TTITLE5=Better Watch Your Step
TTITLE6=Bad Avenue
TTITLE7=Bad Rooster
TTITLE8=Don't Go No Further
TTITLE9=Koko Taylor - All Your Love
TTITLE10=Hard Pill To Swallow
TTITLE11=Young Fashioned Ways
EXTD=
EXTT0=
EXTT1=
EXTT2=
EXTT3=
EXTT4=
EXTT5=
EXTT6=
EXTT7=
EXTT8=
EXTT9=
EXTT10=
EXTT11=
PLAYORDER=
